# 3ds Max Wavefront OBJ Exporter v0.99 - (c)2007 guruware
# File Created: 15.10.2023 13:38:37

mtllib col.mtl

#
# object col1
#

v  -11.2550 0.0000 -0.0000
v  -11.2550 732.9176 -937.2292
v  11.2550 732.9175 -937.2292
v  11.2550 0.0001 -0.0000
v  11.2550 850.4010 -937.2293
v  -11.2550 850.4010 -937.2293
v  -11.2550 117.4835 -0.0000
v  11.2550 117.4836 -0.0000
# 8 vertices

vn -0.5502 -0.7506 0.3659
vn -0.6205 -0.3436 -0.7049
vn 0.6205 -0.3436 -0.7049
vn 0.5503 -0.7506 0.3659
vn 0.5502 0.7506 -0.3659
vn -0.5503 0.7506 -0.3659
vn -0.6205 0.3436 0.7049
vn 0.6205 0.3436 0.7049
# 8 vertex normals

vt 1.0000 1.0000 0.0000
vt 1.0000 0.3750 0.0000
vt 0.3750 0.0000 0.0000
vt 1.0000 0.0000 0.0000
vt 0.0000 0.7500 0.0000
vt 0.7500 1.0000 0.0000
vt 0.0000 0.5000 0.0000
vt 0.5000 0.0000 0.0000
vt -0.0000 0.7500 0.0000
vt -0.0000 0.5000 0.0000
# 10 texture coords

o col1
g col1
usemtl wire_088199225
s off
f 1/1/1 2/2/2 3/3/3 4/4/4 
f 5/5/5 6/6/6 7/7/7 8/8/8 
s 2
f 4/8/4 3/9/3 5/5/5 8/8/8 
s 16
f 3/5/3 2/6/2 6/6/6 5/5/5 
s 4
f 2/6/2 1/10/1 7/7/7 6/6/6 
s 64
f 1/7/1 4/8/4 8/8/8 7/7/7 
# 6 polygons

